<?xml version="1.0" standalone="no"?>
<!DOCTYPE svg PUBLIC "-//W3C//DTD SVG 20010904//EN"
 "http://www.w3.org/TR/2001/REC-SVG-20010904/DTD/svg10.dtd">
<svg version="1.0" xmlns="http://www.w3.org/2000/svg"
 width="260.000000pt" height="260.000000pt" viewBox="0 0 260.000000 260.000000"
 preserveAspectRatio="xMidYMid meet">
<metadata>
Created by potrace 1.11, written by Peter Selinger 2001-2013
</metadata>
<g transform="translate(0.000000,260.000000) scale(0.100000,-0.100000)"
fill="#000000" stroke="none">
<path d="M298 2198 l-3 -381 -25 -4 c-88 -13 -263 -43 -266 -46 -2 -1 2 -22 8
-45 9 -38 13 -41 37 -38 14 3 46 7 71 11 25 4 56 8 70 10 14 3 44 7 68 10 l42
5 0 -269 0 -269 -22 -6 c-13 -3 -38 -6 -55 -6 -18 0 -33 -2 -33 -5 0 -3 34
-72 75 -155 76 -153 97 -177 140 -166 65 17 250 185 380 346 56 69 155 213
151 218 -2 1 -37 -15 -77 -37 -41 -22 -92 -46 -114 -54 -22 -8 -49 -18 -60
-23 -11 -4 -24 -8 -30 -10 -5 -1 -25 -7 -43 -13 l-32 -10 0 250 c0 192 3 249
13 250 6 0 21 2 32 4 11 2 47 7 80 11 33 3 67 8 77 9 9 2 47 7 85 10 60 6 90
10 116 14 8 1 -86 146 -101 155 -4 2 -27 -13 -50 -35 -43 -42 -46 -43 -127
-53 -27 -3 -67 -9 -87 -12 l-38 -6 0 246 0 245 45 34 44 34 -27 13 c-62 29
-335 150 -338 150 -2 0 -5 -172 -6 -382z"/>
<path d="M1576 2386 l-17 -56 -370 0 -370 0 22 -40 23 -40 93 0 c82 0 93 -2
93 -17 2 -80 -2 -435 -5 -463 -11 -105 -16 -142 -26 -191 -6 -30 -12 -65 -15
-79 -3 -14 -20 -78 -39 -142 -59 -198 -151 -397 -280 -604 -59 -94 -197 -289
-215 -304 -3 -3 -24 -27 -45 -55 -54 -68 -26 -44 118 101 368 369 445 455 540
598 101 155 167 308 202 467 21 97 22 102 30 179 3 36 8 80 11 99 2 19 5 119
5 223 l1 188 99 0 98 0 0 -377 c0 -208 0 -385 0 -393 1 -13 46 -15 364 -15
l362 0 -1 -25 c0 -22 -11 -128 -20 -203 -4 -33 -26 -47 199 127 159 122 166
129 145 141 -13 6 -74 42 -137 78 -62 37 -117 67 -120 67 -4 0 -19 -24 -34
-53 l-28 -52 -319 0 c-263 0 -316 2 -307 13 6 7 48 51 94 96 l83 83 0 270 0
270 40 46 c22 25 40 49 40 55 0 5 -21 13 -47 17 -56 10 -67 12 -113 21 -56 12
-58 12 -98 19 l-38 6 -18 -55z"/>
<path d="M1904 1290 l-47 -60 -201 0 -201 0 -43 -40 -42 -40 57 -1 c32 0 134
0 226 0 l169 0 -48 -52 c-26 -29 -75 -80 -108 -114 l-61 -63 -75 18 -75 19 -3
-102 -3 -102 -236 -1 -237 -1 -60 -60 -59 -60 284 0 c156 0 290 0 297 0 15 -1
16 -134 2 -201 -27 -122 -72 -160 -185 -156 -42 1 -61 -2 -57 -9 26 -43 188
-248 203 -255 60 -33 177 35 240 139 53 88 79 196 86 356 3 66 7 122 9 124 1
1 197 3 434 3 237 0 430 3 428 7 -21 45 -95 171 -101 171 -5 0 -27 -13 -50
-30 l-42 -29 -337 1 -338 0 0 44 c0 40 4 46 38 67 20 13 47 27 60 31 31 10 20
21 -24 24 -21 2 -40 4 -41 6 -2 2 70 40 159 85 110 55 183 85 226 93 34 6 62
14 62 18 0 4 -30 34 -67 67 -38 33 -90 80 -117 104 -73 66 -69 66 -122 -1z"/>
</g>
</svg>
