<?xml version="1.0" encoding="utf-8"?>
<!-- Generator: Adobe Illustrator 19.2.0, SVG Export Plug-In . SVG Version: 6.00 Build 0)  -->
<svg version="1.1" id="CutCharLogo" xmlns="http://www.w3.org/2000/svg" xmlns:xlink="http://www.w3.org/1999/xlink" x="0px" y="0px"
	 viewBox="0 0 63.6 61.8" style="enable-background:new 0 0 63.6 61.8;" xml:space="preserve">
<path d="M31.6,10V6.8h5v18l0.1-0.1l0,0.1h18.5l-0.7,6.4l9.2-7.1L56.5,20l-1.3,2.8H38.6l5-4.9V6.1l2.3-2.6L38.3,2l-0.9,2.8H18.7
	l1.2,2h4.7v5.5c0,12.8-4.2,26-17.5,41.6c5.3-5.3,12.2-12.3,13.5-13.7C28.6,31.2,31.6,23.7,31.6,10z"/>
<path d="M8.5,40.3c4-2,10.6-9.5,13.1-14.2c-2.8,1.7-5.8,3-9,3.8V17.3L23,16.1l-2.8-4l-2.4,2.2l-5.3,0.7V2.8l2.2-1.7L5.6,0v15.9
	L0,16.7l0.6,2.2l5-0.6v13.6c-0.9,0.3-1.9,0.4-2.8,0.4l3.3,6.8C6.7,40.4,7.6,40.8,8.5,40.3z"/>
<path d="M61,41.2l-2.1,1.6H41.6v-2.3l3.1-1.7l-2.6-0.3l8.4-4.2l3.4-0.7l-6.6-5.9l-2.5,3.1H34.7l-2.1,2h11.5l-5.5,5.8l-4-0.9v5.1
	H22.7l-3,3h14.9V47c0,6.7-1.2,8.5-6.6,7.7l4.4,5.8c0.9,1.2,1.7,1.6,3.6,0.7c3.5-1.6,5.6-6.5,5.6-13.2v-2.2h22L61,41.2z"/>
</svg>
