<svg xmlns="http://www.w3.org/2000/svg" viewBox="0 0 60 60"><defs><style>.a{fill:none;stroke:#fff;stroke-miterlimit:10;}</style></defs><title>TripiLogo</title><line class="a" x1="37.21" y1="5.93" x2="44.06" y2="5.93"/><line class="a" x1="33.8" y1="9.52" x2="44.22" y2="9.52"/><line class="a" x1="33.72" y1="13.02" x2="44.22" y2="13.02"/><path class="a" d="M35.61,31.53h0a44.7,44.7,0,0,0,.85-9.34l0-3.47A2.52,2.52,0,0,1,39,16.19l1.94,0a2.19,2.19,0,0,1,2.17,2.17l0,9.47a1.62,1.62,0,0,1-1.62,1.62H41"/><line class="a" x1="36.24" y1="20.82" x2="42.63" y2="20.82"/><line class="a" x1="36.24" y1="25.02" x2="42.63" y2="25.02"/><path class="a" d="M46.81,6H52A2.25,2.25,0,0,1,54.2,8.2V8.91a2.35,2.35,0,0,1-2,2.32l-2,.3a2.88,2.88,0,0,0-2.51,2.86l0,12.24a4.33,4.33,0,0,0,3.15,4.15l4,0.88"/><line class="a" x1="47.77" y1="16.49" x2="53.81" y2="16.49"/><line class="a" x1="48.2" y1="21.07" x2="53.81" y2="21.07"/><line class="a" x1="47.77" y1="25.66" x2="54.38" y2="25.66"/><path class="a" d="M45.26,32.57h0a2.13,2.13,0,0,1-1.59,2.06l-6.27,1A3.26,3.26,0,0,0,35,38.75V39.5a3.21,3.21,0,0,0,3.15,3.2l2,0"/><path class="a" d="M44.52,34.37l7.41,1.15a3.4,3.4,0,0,1,2.79,3.34v0.32A3.67,3.67,0,0,1,51,42.83H49.3"/><line class="a" x1="39.86" y1="39.17" x2="49.73" y2="39.17"/><line class="a" x1="44.82" y1="39.45" x2="44.82" y2="56.92"/><path class="a" d="M39,45.8h0a17.3,17.3,0,0,1-.36,8.72l-0.58,2"/><path class="a" d="M50.71,45.76h0a17.72,17.72,0,0,0,.63,8.87l0.54,1.64"/><path class="a" d="M13.2,4.83L10.1,6A3.32,3.32,0,0,0,8,9.82a3.43,3.43,0,0,0,.45,1.05l0.84,1.32a4.7,4.7,0,0,1,.64,2.36V30.63"/><line class="a" x1="12.45" y1="9.57" x2="30.82" y2="9.57"/><path class="a" d="M20.44,1.68S23.82,13.53,30,22.16"/><path class="a" d="M28.2,13C25.13,19.13,28,30.22,28,30.22"/><line class="a" x1="26.22" y1="5.37" x2="22.01" y2="5.58"/><path class="a" d="M21.63,14.16l-5,.05a2.41,2.41,0,0,0-2.4,2.41v8.59a2.58,2.58,0,0,0,2.58,2.57l6.52,0"/><path class="a" d="M14.46,18.71h5.78A1.8,1.8,0,0,1,22,20.49v1.11a1.63,1.63,0,0,1-1.63,1.62h-6"/><line class="a" x1="18.77" y1="14.4" x2="18.77" y2="18.49"/><line class="a" x1="18.86" y1="23.58" x2="18.86" y2="27.96"/><path class="a" d="M3.78,26.07a18,18,0,0,1,5.11-3.58l1-.47"/><path class="a" d="M3.84,19.91a14.55,14.55,0,0,1,4.25-2.58L10,16.59"/><path class="a" d="M10.86,32.2v1.56l-1.4.7a2.72,2.72,0,0,0-.34,4.76l1.74,1.17V42l-1.43.82A3,3,0,0,0,9.33,48l1.3,0.8,0,7"/><path class="a" d="M10.86,33.72l1.6,1a2.56,2.56,0,0,1,.15,4.37l-1.75,1.22"/><path class="a" d="M11,42.1l1.42,0.78a2.92,2.92,0,0,1,.16,5.2l-1.84,1.13"/><line class="a" x1="6.36" y1="49.49" x2="6.21" y2="55.39"/><line class="a" x1="14.92" y1="49.58" x2="15.15" y2="55.45"/><line class="a" x1="16.75" y1="34.36" x2="29.35" y2="33.88"/><path class="a" d="M27.47,34.16l-0.29,2.56a17.65,17.65,0,0,0,0,4.09l0.28,2.3"/><path class="a" d="M18.87,34.76l-0.07.48A26.9,26.9,0,0,0,18.75,42l0.17,1.45"/><line class="a" x1="18.26" y1="48.13" x2="27.75" y2="48.13"/><line class="a" x1="23.23" y1="44.09" x2="23.23" y2="54.36"/><path class="a" d="M23.26,34.12L23,36a24.43,24.43,0,0,0,0,5.34l0.21,1.75"/><line class="a" x1="18.44" y1="54.36" x2="29.78" y2="54.36"/></svg>